<svg id="ART" xmlns="http://www.w3.org/2000/svg" xmlns:xlink="http://www.w3.org/1999/xlink" viewBox="0 0 48 48"><defs><style>.cls-1{fill:url(#linear-gradient);}.cls-2{fill:url(#linear-gradient-2);}.cls-3{fill:url(#linear-gradient-3);}.cls-4{fill:url(#linear-gradient-4);}.cls-5{fill:url(#linear-gradient-5);}.cls-6{fill:url(#linear-gradient-6);}.cls-7{fill:url(#linear-gradient-7);}.cls-8{fill:url(#linear-gradient-8);}.cls-9{fill:url(#linear-gradient-9);}.cls-10{fill:url(#linear-gradient-10);}.cls-11{fill:url(#linear-gradient-11);}.cls-12{fill:url(#linear-gradient-12);}.cls-13{fill:url(#linear-gradient-13);}.cls-14{fill:url(#linear-gradient-14);}.cls-15{fill:url(#linear-gradient-15);}.cls-16{fill:url(#linear-gradient-16);}.cls-17{fill:url(#linear-gradient-17);}</style><linearGradient id="linear-gradient" x1="24" y1="46.63" x2="24" y2="16.1" gradientUnits="userSpaceOnUse"><stop offset="0" stop-color="#273a9b"/><stop offset="0.56" stop-color="#202f65"/><stop offset="1" stop-color="#021e2f"/></linearGradient><linearGradient id="linear-gradient-2" x1="9.75" y1="59.61" x2="9.75" y2="-3.1" gradientUnits="userSpaceOnUse"><stop offset="0" stop-color="#fff"/><stop offset="0.52" stop-color="#cce2e6"/><stop offset="1" stop-color="#8fa1bb"/></linearGradient><linearGradient id="linear-gradient-3" x1="17.25" y1="54.61" x2="17.25" y2="4.99" gradientUnits="userSpaceOnUse"><stop offset="0" stop-color="#f3c57a"/><stop offset="0.49" stop-color="#f39369"/><stop offset="1" stop-color="#e94867"/></linearGradient><linearGradient id="linear-gradient-4" x1="38.25" y1="62.83" x2="38.25" y2="-9.37" gradientTransform="translate(76.5 45.07) rotate(-180)" gradientUnits="userSpaceOnUse"><stop offset="0" stop-color="#27e9de"/><stop offset="0.52" stop-color="#03a4ec"/><stop offset="1" stop-color="#2547a8"/></linearGradient><linearGradient id="linear-gradient-5" x1="38.25" y1="62.5" x2="38.25" y2="-10.5" gradientTransform="matrix(1, 0, 0, -1, -7.5, 52.57)" xlink:href="#linear-gradient-2"/><linearGradient id="linear-gradient-6" x1="14.25" y1="49.94" x2="14.25" y2="18.84" xlink:href="#linear-gradient-3"/><linearGradient id="linear-gradient-7" x1="33.75" y1="60.12" x2="33.75" y2="4.37" xlink:href="#linear-gradient-2"/><linearGradient id="linear-gradient-8" x1="3.75" y1="9.17" x2="3.75" y2="-2.9" xlink:href="#linear-gradient-2"/><linearGradient id="linear-gradient-9" x1="3.75" y1="12.92" x2="3.75" y2="0.85" xlink:href="#linear-gradient-2"/><linearGradient id="linear-gradient-10" x1="3.75" y1="16.67" x2="3.75" y2="4.6" xlink:href="#linear-gradient-2"/><linearGradient id="linear-gradient-11" x1="3.75" y1="20.42" x2="3.75" y2="8.35" xlink:href="#linear-gradient-2"/><linearGradient id="linear-gradient-12" x1="3.75" y1="24.17" x2="3.75" y2="12.1" xlink:href="#linear-gradient-2"/><linearGradient id="linear-gradient-13" x1="3.75" y1="27.92" x2="3.75" y2="15.85" xlink:href="#linear-gradient-2"/><linearGradient id="linear-gradient-14" x1="3.75" y1="31.67" x2="3.75" y2="19.6" xlink:href="#linear-gradient-2"/><linearGradient id="linear-gradient-15" x1="3.75" y1="35.42" x2="3.75" y2="23.35" xlink:href="#linear-gradient-2"/><linearGradient id="linear-gradient-16" x1="3.75" y1="39.17" x2="3.75" y2="27.1" xlink:href="#linear-gradient-2"/><linearGradient id="linear-gradient-17" x1="3.75" y1="42.92" x2="3.75" y2="30.85" xlink:href="#linear-gradient-2"/></defs><title>chart, graph, bar, analytics, statistics</title><path class="cls-1" d="M43.5,45H4.5A1.5,1.5,0,0,1,3,43.5H3A1.5,1.5,0,0,1,4.5,42h39A1.5,1.5,0,0,1,45,43.5h0A1.5,1.5,0,0,1,43.5,45Z"/><path class="cls-2" d="M7.36,15h4.78a1.36,1.36,0,0,1,1.36,1.36V42a0,0,0,0,1,0,0H6a0,0,0,0,1,0,0V16.36A1.36,1.36,0,0,1,7.36,15Z"/><path class="cls-3" d="M13.5,22.54h6.14A1.36,1.36,0,0,1,21,23.89V42a0,0,0,0,1,0,0H13.5a0,0,0,0,1,0,0V22.54A0,0,0,0,1,13.5,22.54Z"/><path class="cls-4" d="M34.5,3.07H42a0,0,0,0,1,0,0V40.64A1.36,1.36,0,0,1,40.64,42H35.86a1.36,1.36,0,0,1-1.36-1.36V3.07A0,0,0,0,1,34.5,3.07Z" transform="translate(76.5 45.07) rotate(180)"/><path class="cls-5" d="M27,10.57h7.5a0,0,0,0,1,0,0V40.64A1.36,1.36,0,0,1,33.14,42H27a0,0,0,0,1,0,0V10.57A0,0,0,0,1,27,10.57Z" transform="translate(61.5 52.57) rotate(180)"/><rect class="cls-6" x="13.5" y="22.54" width="1.5" height="19.46"/><rect class="cls-7" x="33" y="10.57" width="1.5" height="31.43"/><path class="cls-8" d="M3.75,6h0A.75.75,0,0,1,3,5.25H3a.75.75,0,0,1,.75-.75h0a.75.75,0,0,1,.75.75h0A.75.75,0,0,1,3.75,6Z"/><path class="cls-9" d="M3.75,9.75h0A.75.75,0,0,1,3,9H3a.75.75,0,0,1,.75-.75h0A.75.75,0,0,1,4.5,9h0A.75.75,0,0,1,3.75,9.75Z"/><path class="cls-10" d="M3.75,13.5h0A.75.75,0,0,1,3,12.75H3A.75.75,0,0,1,3.75,12h0a.75.75,0,0,1,.75.75h0A.75.75,0,0,1,3.75,13.5Z"/><path class="cls-11" d="M3.75,17.25h0A.75.75,0,0,1,3,16.5H3a.75.75,0,0,1,.75-.75h0a.75.75,0,0,1,.75.75h0A.75.75,0,0,1,3.75,17.25Z"/><path class="cls-12" d="M3.75,21h0A.75.75,0,0,1,3,20.25H3a.75.75,0,0,1,.75-.75h0a.75.75,0,0,1,.75.75h0A.75.75,0,0,1,3.75,21Z"/><path class="cls-13" d="M3.75,24.75h0A.75.75,0,0,1,3,24H3a.75.75,0,0,1,.75-.75h0A.75.75,0,0,1,4.5,24h0A.75.75,0,0,1,3.75,24.75Z"/><path class="cls-14" d="M3.75,28.5h0A.75.75,0,0,1,3,27.75H3A.75.75,0,0,1,3.75,27h0a.75.75,0,0,1,.75.75h0A.75.75,0,0,1,3.75,28.5Z"/><path class="cls-15" d="M3.75,32.25h0A.75.75,0,0,1,3,31.5H3a.75.75,0,0,1,.75-.75h0a.75.75,0,0,1,.75.75h0A.75.75,0,0,1,3.75,32.25Z"/><path class="cls-16" d="M3.75,36h0A.75.75,0,0,1,3,35.25H3a.75.75,0,0,1,.75-.75h0a.75.75,0,0,1,.75.75h0A.75.75,0,0,1,3.75,36Z"/><path class="cls-17" d="M3.75,39.75h0A.75.75,0,0,1,3,39H3a.75.75,0,0,1,.75-.75h0A.75.75,0,0,1,4.5,39h0A.75.75,0,0,1,3.75,39.75Z"/></svg>