<svg xmlns="http://www.w3.org/2000/svg" viewBox="0 0 48 48"><defs><style>.cls-1{fill:#dad7e5;}.cls-2{fill:#edebf2;}.cls-3{fill:#6fabe6;}.cls-4{fill:#82bcf4;}.cls-5{fill:#425b72;}.cls-6{fill:#db5669;}.cls-7{fill:#f26674;}</style></defs><title>chat in web</title><g id="chat_in_web" data-name="chat in web"><path class="cls-1" d="M47,9c0,37.11.15,34.52-.36,35.64A4,4,0,0,1,43,47H5a4,4,0,0,1-4-4V9Z"/><path class="cls-2" d="M47,9c0,37.11.15,34.52-.36,35.64A3.93,3.93,0,0,1,45,45H11a8,8,0,0,1-8-8V9Z"/><path class="cls-3" d="M47,5V9H1V5A4,4,0,0,1,3.36,1.36C4.48.85,1.45,1,43,1A4,4,0,0,1,47,5Z"/><path class="cls-4" d="M47,5V7H6A3,3,0,0,1,3,4a5.45,5.45,0,0,1,.36-2.64A3.93,3.93,0,0,1,5,1H43A4,4,0,0,1,47,5Z"/><path class="cls-5" d="M43,6a1,1,0,1,1,.38-1.92A1,1,0,0,1,43,6Z"/><path class="cls-5" d="M39,6a1,1,0,0,1-.83-1.56,1,1,0,0,1,1.54-.15A1,1,0,0,1,39,6Z"/><path class="cls-5" d="M35,6a1,1,0,1,1,.92-1.38A1,1,0,0,1,35,6Z"/><path class="cls-5" d="M23,6H5A1,1,0,0,1,5,4H23A1,1,0,0,1,23,6Z"/><path class="cls-3" d="M42,21V36l-5-2H27a3,3,0,0,1-3-3V21a3,3,0,0,1,2-2.82c.66-.26,0-.18,13-.18A3,3,0,0,1,42,21Z"/><path class="cls-4" d="M42,21V32H30a4,4,0,0,1-4-4V18.18A2.77,2.77,0,0,1,27,18H39A3,3,0,0,1,42,21Z"/><path class="cls-6" d="M24,23c0,10.73.07,10.34-.18,11A3,3,0,0,1,21,36H11L6,38V23a3,3,0,0,1,3-3H21A3,3,0,0,1,24,23Z"/><path class="cls-7" d="M24,23c0,10.73.07,10.34-.18,11H12a4,4,0,0,1-4-4V20.18A2.77,2.77,0,0,1,9,20H21A3,3,0,0,1,24,23Z"/><path class="cls-2" d="M20,25H10a1,1,0,0,1,0-2H20A1,1,0,0,1,20,25Z"/><path class="cls-2" d="M20,33H10a1,1,0,0,1,0-2H20A1,1,0,0,1,20,33Z"/><path class="cls-2" d="M20,29H10a1,1,0,0,1,0-2H20A1,1,0,0,1,20,29Z"/><path class="cls-2" d="M38,23H28a1,1,0,0,1,0-2H38A1,1,0,0,1,38,23Z"/><path class="cls-2" d="M38,31H28a1,1,0,0,1,0-2H38A1,1,0,0,1,38,31Z"/><path class="cls-2" d="M38,27H28a1,1,0,0,1,0-2H38A1,1,0,0,1,38,27Z"/></g></svg>