<?xml version="1.0" encoding="utf-8"?>
<!-- Generator: Adobe Illustrator 18.0.0, SVG Export Plug-In . SVG Version: 6.00 Build 0)  -->
<!DOCTYPE svg PUBLIC "-//W3C//DTD SVG 1.1//EN" "http://www.w3.org/Graphics/SVG/1.1/DTD/svg11.dtd">
<svg version="1.1" id="Layer_1" xmlns="http://www.w3.org/2000/svg" xmlns:xlink="http://www.w3.org/1999/xlink" x="0px" y="0px"
	 width="256px" height="256px" viewBox="0 0 256 256" enable-background="new 0 0 256 256" xml:space="preserve">
<g>
	<g>
		<path fill="#E0E0E0" d="M89.2,255.8v-25.7c0-2.7-1.9-5.1-4.5-5.7c-0.5-0.1-0.9-0.2-1.4-0.2c-2.2,0-4.2,1.2-5.2,3.2
			c-3.7,7.3-11,11.8-19.1,11.8c-6.6,0-12.8-3-16.9-8.2l-0.2-0.2l-0.2-0.2l-20.5-21.2c-2.5-3.5-2-8.3,1.2-11.1l0.2-0.1l0.2-0.1
			c1.5-1.4,3.5-2.1,5.5-2.1c0.3,0,0.6,0,0.9,0c2.3,0.2,4.4,1.4,5.8,3.3l0.1,0.2l0.1,0.2l15,17.6l0.2,0.3l0.3,0.2
			c2.2,1.9,4.8,2.9,7.6,2.9c1.6,0,3.1-0.3,4.6-1c4.1-1.8,6.8-5.7,6.9-10.2c0.1-4.8,0.2-8.1,0.2-9.5l0-0.3c0-17.2,14-31.3,31.3-31.3
			H126h24.9c17.2,0,31.3,14,31.3,31.3l0,0.3c0,1.5,0.1,4.6,0.2,9.5c0.1,4.5,2.7,8.4,6.9,10.2c1.5,0.7,3.1,1,4.6,1
			c2.7,0,5.4-1,7.6-2.9l0.3-0.2l0.2-0.3l15-17.6l0.1-0.2l0.1-0.2c1.4-1.9,3.5-3.1,5.8-3.3c0.3,0,0.6,0,0.9,0c2,0,3.9,0.7,5.5,2.1
			l0.2,0.1l0.2,0.1c3.2,2.8,3.7,7.7,1.2,11.1l-20.5,21.2l-0.2,0.2l-0.2,0.2c-4.1,5.2-10.2,8.2-16.9,8.2c-8.2,0-15.5-4.5-19.1-11.8
			c-1-2-3.1-3.2-5.2-3.2c-0.5,0-0.9,0.1-1.4,0.2c-2.7,0.6-4.5,3-4.5,5.7v25.7H89.2z"/>
	</g>
	<g>
		<path fill="#F68F6F" d="M26,78.3l0.3,0l-5.6-7.6c-2.2-2.9-3.3-6.4-3.3-9.9V24.1c0-9.2,7.5-16.8,16.8-16.8h187.6
			c9.2,0,16.8,7.5,16.8,16.8v36.6c0,9.2-7.5,16.8-16.8,16.8H35.4v14.4L26,78.3z"/>
	</g>
	<g>
		<g>
			<polygon fill="#F68F6F" points="137.1,247.6 130.5,184.8 133.4,176.8 135.5,170.7 115.6,170.7 117.8,176.8 120.6,184.8 
				114,246.7 103.4,165.9 115.2,255.8 136,255.8 148.4,168.9 			"/>
		</g>
	</g>
	<g>
		<path fill="#4A555F" d="M125.6,164.4c-17.9,0-32.5-14.6-32.5-32.5s14.6-32.5,32.5-32.5s32.5,14.6,32.5,32.6
			C158.1,149.8,143.5,164.4,125.6,164.4z M125.6,102.7c-16.1,0-29.2,13.1-29.2,29.2s13.1,29.2,29.2,29.2s29.2-13.1,29.2-29.2
			C154.7,115.8,141.7,102.7,125.6,102.7z"/>
	</g>
	<g>
		<path fill="#FFD552" d="M125.6,157.6c-14.2,0-25.8-11.6-25.8-25.8s11.6-25.8,25.8-25.8c14.2,0,25.8,11.6,25.8,25.8
			S139.8,157.6,125.6,157.6L125.6,157.6z"/>
	</g>
	<g>
		<path fill="#4A555F" d="M131.8,186.5h-12.4l-6.2-17.5H138L131.8,186.5z M121.8,183.1h7.6l3.8-10.7H118L121.8,183.1z"/>
	</g>
	<g>
		<polygon fill="#4A555F" points="138.3,256 134.9,255.5 135.7,250.1 129,186.5 122.1,186.5 115.7,248.3 116.6,255.6 113.3,256 
			112.3,248.3 112.3,248.1 119.1,183.1 132.1,183.1 139.1,250.2 		"/>
	</g>
	<g>
		<path fill="#4A555F" d="M105.4,192.8L101,161l12.9,0l5.7,16.2L105.4,192.8z M104.9,164.4l2.8,20.8l8.1-8.8l-4.2-12L104.9,164.4z"
			/>
	</g>
	<g>
		<path fill="#4A555F" d="M146.8,193.6l-15.3-16.4l5.7-16.2l14,0L146.8,193.6z M135.4,176.4l9,9.6l2.9-21.6l-7.7,0L135.4,176.4z"/>
	</g>
	<g>
		
			<rect x="62.1" y="207.5" transform="matrix(0.1276 0.9918 -0.9918 0.1276 302.5904 74.4539)" fill="#4A555F" width="93.8" height="3.4"/>
	</g>
	<g>
		
			<rect x="141.2" y="162.3" transform="matrix(0.9909 0.1348 -0.1348 0.9909 29.502 -17.3545)" fill="#4A555F" width="3.4" height="93.9"/>
	</g>
	<g>
		<path fill="#4A555F" d="M106.7,50.3h-3.4v-2c0-2.9,1.8-5.5,4.4-6.4c3.5-1.2,5.8-4.5,5.7-8.3c-0.1-4.4-3.8-8.1-8.2-8.2
			c-2.3-0.1-4.5,0.8-6.1,2.4c-1.7,1.6-2.6,3.8-2.6,6.1h-3.4c0-3.2,1.3-6.3,3.6-8.5c2.3-2.3,5.4-3.5,8.6-3.4
			c6.2,0.2,11.4,5.3,11.5,11.5c0.1,5.2-3.1,9.9-8.1,11.6c-1.2,0.4-2.1,1.7-2.1,3.1V50.3z"/>
	</g>
	<g>
		<g>
			<rect x="79" y="23.7" fill="#4A555F" width="3.4" height="26.1"/>
		</g>
		<g>
			<rect x="79" y="54.1" fill="#4A555F" width="3.4" height="3.8"/>
		</g>
		<g>
			<rect x="103.3" y="54.1" fill="#4A555F" width="3.4" height="3.8"/>
		</g>
	</g>
	<g>
		<path fill="#4A555F" d="M170.1,255.8h-3.4v-25.7c0-0.9,0.6-1.7,1.5-1.9c0.9-0.2,1.8,0.2,2.2,1c4.3,8.6,13,14,22.7,14
			c7.9,0,15.1-3.6,20-9.7l0.1-0.1l20.7-21.4c3.9-5.1,3.2-12.4-1.6-16.7l-0.3-0.3c-2.6-2.3-5.9-3.4-9.4-3c-3.4,0.4-6.5,2.1-8.6,4.9
			l-15.2,17.9c-2.2,2-5.3,2.4-8,1.3c-2.7-1.2-4.4-3.7-4.5-6.7c-0.1-4.9-0.2-8-0.2-9.5l0-0.3c0-19.4-15.8-35.2-35.2-35.2h-49.8
			c-19.4,0-35.2,15.8-35.2,35.2l0,0.3c0,1.8-0.1,6.1-0.2,9.5c-0.1,3-1.8,5.5-4.5,6.7c-2.7,1.2-5.8,0.7-8-1.3l-0.2-0.2l-15-17.6
			c-2.1-2.9-5.2-4.6-8.6-5c-3.5-0.4-6.8,0.7-9.4,3l-0.3,0.3c-4.9,4.3-5.6,11.6-1.6,16.7l20.8,21.5c4.8,6.2,12.1,9.7,20,9.7
			c9.7,0,18.4-5.4,22.7-14c0.4-0.8,1.3-1.2,2.2-1c0.9,0.2,1.5,1,1.5,1.9v25.7h-3.4v-20.5c-5.4,7.1-13.8,11.3-22.9,11.3
			c-8.9,0-17.1-4-22.6-11l-20.8-21.5c-5.1-6.5-4.2-15.9,2-21.4l0.3-0.3c3.3-2.9,7.7-4.3,12-3.8c4.3,0.5,8.3,2.7,10.9,6.2l14.8,17.5
			c1.2,1,2.8,1.3,4.3,0.6c1.5-0.7,2.4-2,2.5-3.7c0.1-4.7,0.2-8,0.2-9.4l0-0.3c0-21.3,17.3-38.6,38.6-38.6h49.8
			c21.3,0,38.6,17.3,38.6,38.6l0,0.3c0,1.4,0.1,4.6,0.2,9.4c0,1.6,1,3,2.5,3.7c1.5,0.6,3.1,0.4,4.3-0.6l14.9-17.5
			c2.5-3.4,6.5-5.7,10.9-6.2c4.3-0.5,8.7,0.9,12,3.8l0.3,0.3c6.2,5.5,7.1,14.9,2,21.4l-0.1,0.1l-20.7,21.4c-5.5,7-13.7,11-22.6,11
			c-9.1,0-17.5-4.2-22.9-11.3V255.8z"/>
	</g>
	<g>
		<path fill="#4A555F" d="M42.8,115.4L13.2,72.7l0.1,0c-2.1-3.7-3.2-7.8-3.2-12V24.1C10,10.8,20.9,0,34.2,0h187.6
			C235.1,0,246,10.8,246,24.1v36.6c0,13.3-10.8,24.1-24.1,24.1H42.8V115.4z M19.1,75.3l20.3,29.3V81.4h182.5
			c11.4,0,20.7-9.3,20.7-20.7V24.1c0-11.4-9.3-20.7-20.7-20.7H34.2c-11.4,0-20.7,9.3-20.7,20.7v36.6c0,4.4,1.4,8.7,4.1,12.3l1.7,2.3
			L19.1,75.3z"/>
	</g>
	<g>
		<rect x="134.3" y="23.7" fill="#4A555F" width="3.4" height="16.4"/>
	</g>
	<g>
		
			<rect x="134.3" y="23.7" transform="matrix(0.6029 0.7978 -0.7978 0.6029 79.5199 -95.8509)" fill="#4A555F" width="3.4" height="16.4"/>
	</g>
	<g>
		
			<rect x="127.8" y="30.3" transform="matrix(0.7992 0.601 -0.601 0.7992 46.5138 -75.3465)" fill="#4A555F" width="16.4" height="3.4"/>
	</g>
	<g>
		
			<rect x="45.9" y="23.8" transform="matrix(0.956 0.2933 -0.2933 0.956 14.0324 -12.1652)" fill="#4A555F" width="3.4" height="33.8"/>
	</g>
	<g>
		
			<rect x="58.9" y="23.8" transform="matrix(0.956 0.2933 -0.2933 0.956 14.6067 -15.995)" fill="#4A555F" width="3.4" height="33.8"/>
	</g>
	<g>
		<rect x="39.5" y="32.8" fill="#4A555F" width="32.3" height="3.4"/>
	</g>
	<g>
		<rect x="36.4" y="43.2" fill="#4A555F" width="32.3" height="3.4"/>
	</g>
	<g>
		<path fill="#4A555F" d="M169.9,61.7H162c-5.1,0-9.3-4.2-9.3-9.3v-0.3c0-3.3,1.8-6.4,4.7-8.1l2.1-1.2l-2.8-2.1
			c-1.4-1.1-2.3-2.8-2.3-4.6v-7.5c0-3.2,2.6-5.8,5.8-5.8h7.6c3.2,0,5.8,2.6,5.8,5.8v6.8c0,2.1-1.1,4-2.9,5l-5,2.8l11.2,8.4l2.9-5.8
			l3,1.5l-3.2,6.4l6.5,4.9l-2,2.7l-6-4.5C176.4,59.8,173.3,61.7,169.9,61.7z M162.4,45.1l-3.4,1.9c-1.8,1-3,3-3,5.1v0.3
			c0,3.2,2.6,5.9,5.9,5.9h7.9c2.3,0,4.3-1.3,5.3-3.3l0.1-0.3L162.4,45.1z M160.1,26.3c-1.3,0-2.4,1.1-2.4,2.4v7.5
			c0,0.7,0.4,1.5,0.9,1.9l4,3l6.2-3.5c0.7-0.4,1.2-1.2,1.2-2.1v-6.8c0-1.3-1.1-2.4-2.4-2.4H160.1z"/>
	</g>
	<g>
		<g>
			
				<rect x="206.1" y="20.1" transform="matrix(0.8344 0.5512 -0.5512 0.8344 57.4826 -107.5924)" fill="#4A555F" width="3.4" height="43.4"/>
		</g>
		<g>
			<path fill="#4A555F" d="M198.1,35c-3.5,0-6.4-2.9-6.4-6.4s2.9-6.4,6.4-6.4s6.4,2.9,6.4,6.4S201.6,35,198.1,35z M198.1,25.7
				c-1.6,0-3,1.3-3,3s1.3,3,3,3s3-1.3,3-3S199.7,25.7,198.1,25.7z"/>
		</g>
		<g>
			<path fill="#4A555F" d="M216.9,62.1c-3.5,0-6.4-2.9-6.4-6.4c0-3.5,2.9-6.4,6.4-6.4s6.4,2.9,6.4,6.4
				C223.3,59.2,220.4,62.1,216.9,62.1z M216.9,52.8c-1.6,0-3,1.3-3,3c0,1.6,1.3,3,3,3s3-1.3,3-3C219.9,54.1,218.6,52.8,216.9,52.8z"
				/>
		</g>
	</g>
	<g>
		<rect x="81.8" y="220.3" fill="#4A555F" width="3.4" height="17"/>
	</g>
	<g>
		<rect x="166.7" y="220.3" fill="#4A555F" width="3.4" height="17"/>
	</g>
</g>
</svg>
