<!DOCTYPE svg PUBLIC "-//W3C//DTD SVG 1.1//EN" "http://www.w3.org/Graphics/SVG/1.1/DTD/svg11.dtd">
<!-- Uploaded to: SVG Repo, www.svgrepo.com, Transformed by: SVG Repo Mixer Tools -->
<svg fill="#c77971" height="800px" width="800px" version="1.1" id="Layer_1" xmlns="http://www.w3.org/2000/svg" xmlns:xlink="http://www.w3.org/1999/xlink" viewBox="0 0 512.197 512.197" xml:space="preserve">
<g id="SVGRepo_bgCarrier" stroke-width="0"/>
<g id="SVGRepo_tracerCarrier" stroke-linecap="round" stroke-linejoin="round"/>
<g id="SVGRepo_iconCarrier"> <g transform="translate(1 1)"> <g> <g> <path d="M498.717,438.664l-192-192c-1.707-74.24-1.707-121.173-1.707-136.533c1.707-71.68-56.32-108.373-95.573-110.933 c-32.427-1.707-60.587,7.68-80.213,27.307c-21.333,21.333-28.16,52.053-19.627,83.627c-31.573-8.533-62.293-1.707-82.773,18.773 c-19.627,19.627-29.013,46.08-27.307,80.213c1.707,40.107,39.253,98.133,110.933,95.573c20.48-0.853,84.48,0.853,136.533,1.707 l125.867,125.867l-12.373,12.373c-3.413,3.413-3.413,8.533,0,11.947c1.707,1.707,3.413,2.56,5.973,2.56 c1.707,0,4.267-0.853,5.973-2.56l12.373-12.373l11.947,11.947l-12.373,12.373c-3.413,3.413-3.413,8.533,0,11.947 c1.707,1.707,3.413,2.56,5.973,2.56c1.707,0,4.267-0.853,5.973-2.56l12.373-12.373l11.947,11.947l-12.373,12.373 c-3.413,3.413-3.413,8.533,0,11.947c1.707,1.707,3.413,2.56,5.973,2.56s4.267-0.853,5.973-2.56l12.373-12.373l6.4,6.4 c7.68,8.533,18.773,12.8,29.867,12.8s22.187-4.267,29.867-11.947C514.931,482.184,514.931,455.731,498.717,438.664z M486.771,486.451c-4.267,5.12-11.093,7.68-17.92,7.68s-12.8-2.56-17.92-7.68l-194.56-194.56c-1.707-1.707-3.413-2.56-5.973-2.56 c-44.373-0.853-97.28-1.707-126.293-1.707c-5.973,0-10.24,0-13.653,0c-60.587,1.707-91.307-46.08-93.013-79.36 c-0.853-29.013,5.973-51.2,22.187-67.413c18.773-19.627,50.347-23.04,81.067-9.387c3.413,1.707,6.827,0.853,9.387-1.707 c2.56-2.56,3.413-5.973,1.707-9.387c-13.653-31.573-10.24-62.293,9.387-81.92c16.213-16.213,38.4-23.893,67.413-22.187 c32.427,1.707,80.213,33.28,79.36,93.013c-0.853,17.067,0,64,1.707,140.8c0,2.56,0.853,4.267,2.56,5.973l194.56,194.56 C497.011,459.997,497.011,476.211,486.771,486.451z"/> <path d="M148.851,148.531c-10.24,9.387-15.36,22.187-15.36,35.84s5.973,26.453,15.36,35.84c9.387,10.24,23.04,15.36,35.84,15.36 c13.653,0,26.453-4.267,36.693-14.507c9.387-9.387,15.36-23.04,15.36-36.693s-5.973-26.453-15.36-35.84 C200.904,128.904,168.477,128.904,148.851,148.531z M209.437,208.264c-13.653,13.653-34.987,13.653-48.64,0 c-6.827-5.973-10.24-15.36-10.24-23.893s3.413-17.067,10.24-23.893s15.36-10.24,23.893-10.24c9.387,0,17.92,3.413,24.747,10.24 c6.827,5.973,10.24,15.36,10.24,23.893S216.264,201.437,209.437,208.264z"/> </g> </g> </g> </g>
</svg>