<!DOCTYPE svg PUBLIC "-//W3C//DTD SVG 1.1//EN" "http://www.w3.org/Graphics/SVG/1.1/DTD/svg11.dtd">
<!-- Uploaded to: SVG Repo, www.svgrepo.com, Transformed by: SVG Repo Mixer Tools -->
<svg fill="#c77971" height="800px" width="800px" version="1.1" id="Layer_1" xmlns="http://www.w3.org/2000/svg" xmlns:xlink="http://www.w3.org/1999/xlink" viewBox="0 0 510.503 510.503" xml:space="preserve">
<g id="SVGRepo_bgCarrier" stroke-width="0"/>
<g id="SVGRepo_tracerCarrier" stroke-linecap="round" stroke-linejoin="round"/>
<g id="SVGRepo_iconCarrier"> <g transform="translate(1 1)"> <g> <g> <path d="M505.76,96.31c0-29.147-22.914-51.732-53.895-53.734v-0.161h-73.292c2.845-14.66-1.685-29.061-12.041-36.828 c-9.881-8.084-24.253-8.084-37.726-1.797c-2.695,0.898-5.39,2.695-6.288,2.695c-0.898,0-4.491-1.797-7.186-2.695 c-14.372-7.186-28.744-6.288-39.523,2.695c-8.084,7.186-12.575,15.27-12.575,25.151c-0.123,3.568,0.31,7.171,1.168,10.779 H155.444c-29.642,0-53.895,24.253-53.895,53.895v241.31c-0.794-0.422-1.68-0.915-2.695-1.478 c-21.558-10.779-36.828-4.491-44.912,2.695c-8.982,8.084-14.372,17.965-14.372,28.744c-0.314,5.333,0.46,10.748,2.034,16.168 H2.743v71.86c0,29.642,21.558,51.2,53.895,53.895h287.439c35.032,0,62.877-27.846,62.877-62.877V186.135h98.807V96.31z M281.199,31.636c0-4.491,1.797-8.084,6.288-11.677c1.797-1.796,4.491-3.593,8.982-3.593c2.695,0,6.288,0.898,11.677,2.695 c12.576,6.288,15.27,6.288,28.744,0c7.186-3.593,13.474-3.593,18.863,0c5.389,4.491,7.186,12.575,5.389,20.66 c-0.217,0.912-0.464,1.807-0.726,2.695h-0.172l-1.015,3.551c-5.871,15.708-18.69,27.831-32.22,41.361 c-1.797,1.796-2.695,2.695-4.491,4.491l-0.898-0.898c-7.451-6.985-18.276-17.593-26.854-28.817 c-3.539-4.723-6.701-9.548-9.076-14.299l-1.874-3.747C282.013,39.703,281.015,35.499,281.199,31.636z M57.536,368.478 c0-6.288,2.695-11.677,8.084-16.168c1.797-1.797,5.389-4.491,11.677-4.491c3.593,0,8.084,0.898,13.474,4.491 c4.457,2.097,7.839,3.578,10.779,4.451v0.04h0.138c7.052,2.058,11.575,0.564,22.318-4.491c8.982-4.491,17.067-4.491,23.354,0 c5.264,3.948,8.106,10.31,8.197,17.665c-0.043,2.413-0.37,4.922-1.011,7.486c-0.658,2.633-1.32,5.27-2.332,8.258l-1.261,2.521 c-8.084,17.965-22.456,32.337-36.828,46.709c-1.796,1.797-4.491,4.491-6.288,6.288c0,0-0.898-0.898-1.796-1.797 c-12.575-12.575-32.337-32.337-42.218-51.2l-2.695-4.491h-0.281C58.604,378.378,57.346,373.208,57.536,368.478z M20.708,455.608 v-53.895h28.744c0.999,1.69,2.066,3.369,3.161,5.043c10.49,16.266,25.372,31.547,37.413,43.613 c0.071,0.071,0.142,0.143,0.213,0.214c0.788,0.79,1.567,1.569,2.329,2.33c2.246,1.684,4.14,3.368,5.904,5.053 c1.058,1.011,2.068,2.021,3.079,3.032l6.288,7.186l0,0v0l0,0l7.185-7.185c3.593-3.593,8.084-8.084,12.575-12.575 c14.074-14.074,28.645-28.65,37.75-46.709h124.833v53.895c0,14.246,4.99,26.615,13.752,35.93H57.536 C35.978,489.742,20.708,475.37,20.708,455.608z M388.988,446.626c0,25.151-19.761,44.912-44.014,44.912 c-0.014-0.001-0.028-0.003-0.043-0.004l0.043-0.894c-21.558-1.797-36.828-16.168-36.828-35.93v-70.961v-0.898H172.293 c0.071-0.3,0.15-0.596,0.218-0.898c1.806-9.028,1.339-17.6-1.05-25.151h172.615c5.389,0,8.982-3.593,8.982-8.982 s-3.593-8.982-8.982-8.982H164.427c-1.352,0-2.591,0.227-3.688,0.65c-0.555-0.528-1.114-1.052-1.701-1.549 c-1.292-0.994-2.648-1.86-4.043-2.636c-0.067-0.038-0.131-0.079-0.198-0.116c-0.35-0.191-0.705-0.367-1.061-0.546 c-9.97-5.131-22.091-5.602-34.221-0.295V96.31c0-19.761,16.168-35.93,35.93-35.93h116.485 c9.564,16.452,25.144,32.043,37.115,44.014c2.695,2.695,5.389,5.389,7.186,7.186l6.288,7.186l6.288-7.186 c3.593-3.593,7.186-7.186,10.779-10.779c12.289-12.289,25.092-24.582,32.897-40.421h30.755c-1.17,1.234-2.279,2.518-3.321,3.853 c-6.322,7.866-10.231,17.835-10.837,29.015c-0.005,0.085-0.014,0.168-0.018,0.253c-0.046,0.928-0.072,1.864-0.072,2.808v89.825 V446.626z M487.795,168.17h-80.842V96.31c0-0.72,0.02-1.429,0.059-2.128c0.008-0.139,0.024-0.272,0.033-0.41 c0.037-0.562,0.08-1.122,0.141-1.671c0.014-0.124,0.035-0.244,0.05-0.367c0.069-0.558,0.144-1.113,0.237-1.657 c0.018-0.104,0.041-0.205,0.06-0.309c0.1-0.555,0.209-1.106,0.334-1.646c0.024-0.103,0.052-0.202,0.077-0.304 c0.128-0.53,0.265-1.055,0.417-1.57c0.036-0.123,0.077-0.243,0.115-0.366c0.148-0.48,0.302-0.956,0.47-1.424 c0.059-0.163,0.122-0.323,0.183-0.485c0.153-0.407,0.311-0.81,0.479-1.207c0.097-0.228,0.199-0.452,0.3-0.676 c0.138-0.307,0.28-0.613,0.427-0.914c0.153-0.312,0.312-0.619,0.474-0.924c0.099-0.187,0.199-0.373,0.301-0.557 c0.232-0.415,0.47-0.825,0.719-1.226c0.029-0.047,0.057-0.093,0.086-0.14c5.482-8.746,14.852-14.264,24.749-16.715 c3.515-0.817,7.127-1.236,10.711-1.236c19.761,0,40.421,12.575,40.421,35.93V168.17z"/> <path d="M164.427,141.222h89.825c5.389,0,8.982-3.593,8.982-8.982c0-5.389-3.593-8.982-8.982-8.982h-89.825 c-5.389,0-8.982,3.593-8.982,8.982C155.444,137.629,159.037,141.222,164.427,141.222z"/> <path d="M344.076,177.152H164.427c-5.389,0-8.982,3.593-8.982,8.982s3.593,8.982,8.982,8.982h179.649 c5.389,0,8.982-3.593,8.982-8.982S349.466,177.152,344.076,177.152z"/> <path d="M344.076,231.047H164.427c-5.389,0-8.982,3.593-8.982,8.982s3.593,8.982,8.982,8.982h179.649 c5.389,0,8.982-3.593,8.982-8.982S349.466,231.047,344.076,231.047z"/> <path d="M344.076,284.942H164.427c-5.389,0-8.982,3.593-8.982,8.982c0,5.389,3.593,8.982,8.982,8.982h179.649 c5.389,0,8.982-3.593,8.982-8.982C353.058,288.534,349.466,284.942,344.076,284.942z"/> </g> </g> </g> </g>
</svg>