<!DOCTYPE svg PUBLIC "-//W3C//DTD SVG 1.1//EN" "http://www.w3.org/Graphics/SVG/1.1/DTD/svg11.dtd">
<!-- Uploaded to: SVG Repo, www.svgrepo.com, Transformed by: SVG Repo Mixer Tools -->
<svg fill="#c77971" height="800px" width="800px" version="1.1" id="Layer_1" xmlns="http://www.w3.org/2000/svg" xmlns:xlink="http://www.w3.org/1999/xlink" viewBox="0 0 512 512" xml:space="preserve">
<g id="SVGRepo_bgCarrier" stroke-width="0"/>
<g id="SVGRepo_tracerCarrier" stroke-linecap="round" stroke-linejoin="round"/>
<g id="SVGRepo_iconCarrier"> <g transform="translate(1 1)"> <g> <g> <path d="M459.8,177.667v-67.84c0-18.773-15.36-34.133-34.133-34.133h-75.435L277.187,7.427c-11.947-11.093-31.573-11.093-43.52,0 l-73.728,68.267H84.333c-18.773,0-34.133,15.36-34.133,34.133v68.693L2.718,222.441c-0.851,0.575-1.547,1.226-2.105,1.947 L-1,225.88v3.413V502.36v8.533h512v-8.533V229.293v-4.267L459.8,177.667z M172.998,365.889L16.067,485.293V246.36L50.2,272.331 v0.482L172.998,365.889z M189.613,374.36h130.773l156.8,119.467H32.813L189.613,374.36z M337.773,365.827l73.847-56.495 l48.18-36.519v0v-0.34l34.133-26.113v238.933L337.773,365.827z M489.405,228.518L459.8,251.074v-49.94L489.405,228.518z M244.76,20.227c5.973-5.12,14.507-5.12,20.48,0l59.733,55.467H185.027L244.76,20.227z M67.267,109.827 c0-9.387,7.68-17.067,17.067-17.067h57.173h226.987h57.173c9.387,0,17.067,7.68,17.067,17.067v52.053v102.197l-40.954,31.203 l-81.926,62.013h-130.24L67.267,264.077V162.733V109.827z M50.2,251.074l-29.605-22.556L50.2,201.133V251.074z"/> <path d="M167.107,243.8c14.507,13.653,81.067,83.627,81.92,84.48l5.973,6.827l5.12-6.827c0.853-0.853,67.413-70.827,81.92-84.48 c34.133-33.28,23.893-76.8,6.827-95.573c-14.507-16.213-31.573-24.747-49.493-24.747s-34.133,9.387-45.227,25.6 c-10.24-16.213-26.453-25.6-44.373-25.6c-17.92,0-34.987,8.533-49.493,24.747C139.8,171.267,136.387,214.787,167.107,243.8z M173.933,160.173c11.093-12.8,23.893-18.773,36.693-18.773c17.92,0,30.72,15.36,36.693,29.867l7.68,20.48l8.533-20.48 c5.973-14.507,18.773-29.867,37.547-29.867c12.8,0,25.6,5.973,36.693,18.773c12.8,14.507,19.627,46.933-5.973,71.68 c-11.947,11.947-58.88,60.587-75.947,78.507c-17.067-17.92-63.147-66.56-75.947-78.507 C153.453,207.107,161.133,174.68,173.933,160.173z"/> </g> </g> </g> </g>
</svg>