<?xml version="1.0" encoding="utf-8"?>
<!-- Generator: Adobe Illustrator 24.3.0, SVG Export Plug-In . SVG Version: 6.00 Build 0)  -->
<svg version="1.1" id="Layer_1" xmlns="http://www.w3.org/2000/svg" xmlns:xlink="http://www.w3.org/1999/xlink" x="0px" y="0px"
	 viewBox="0 0 300 300" enable-background="new 0 0 300 300" xml:space="preserve">
<g>
	<g>
		<g>
			<path fill="#FE6F80" d="M111.545,61.158c0,4.602-3.732,8.335-8.335,8.335l0,0c-4.603,0-8.335-3.733-8.335-8.335V37.097
				c0-4.603,3.733-8.335,8.335-8.335l0,0c4.603,0,8.335,3.732,8.335,8.335V61.158z"/>
		</g>
		<g>
			<path fill="#FE6F80" d="M205.126,61.158c0,4.602-3.732,8.335-8.335,8.335l0,0c-4.603,0-8.335-3.733-8.335-8.335V37.097
				c0-4.603,3.733-8.335,8.335-8.335l0,0c4.603,0,8.335,3.732,8.335,8.335V61.158z"/>
		</g>
		<g>
			<path fill="#FFA1AA" d="M103.209,61.158V37.097c0-3.077,1.687-5.735,4.168-7.179c-1.23-0.716-2.642-1.156-4.168-1.156
				c-4.603,0-8.335,3.732-8.335,8.335v24.061c0,4.602,3.733,8.335,8.335,8.335c1.526,0,2.938-0.44,4.168-1.156
				C104.897,66.893,103.209,64.235,103.209,61.158z"/>
		</g>
		<g>
			<path fill="#FFA1AA" d="M196.791,61.158V37.097c0-3.077,1.687-5.735,4.168-7.179c-1.23-0.716-2.642-1.156-4.168-1.156
				c-4.603,0-8.335,3.732-8.335,8.335v24.061c0,4.602,3.733,8.335,8.335,8.335c1.526,0,2.938-0.44,4.168-1.156
				C198.478,66.893,196.791,64.235,196.791,61.158z"/>
		</g>
		<g>
			<path fill="#F4F4F4" d="M205.126,49.127v12.031c0,4.602-3.732,8.335-8.335,8.335c-4.603,0-8.335-3.733-8.335-8.335V49.127
				h-76.911v12.031c0,4.602-3.732,8.335-8.335,8.335c-4.603,0-8.335-3.733-8.335-8.335V49.127H60.776v222.111h178.448V49.127
				H205.126z"/>
		</g>
		<g>
			<path fill="#A880B2" d="M185.116,115.036c0-5.189-4.205-9.393-9.392-9.393c-5.041,0-9.142,3.971-9.373,8.955l-0.032-0.013
				l-0.013,0.006c-0.232-4.98-4.33-8.948-9.37-8.948c-5.187,0-9.393,4.204-9.393,9.393c0,2.308,0.836,4.418,2.217,6.055h-0.003
				l16.573,18.665l16.576-18.665l-0.005-0.003C184.282,119.454,185.116,117.343,185.116,115.036z"/>
		</g>
		<g>
			<g>
				<path fill="#B999C1" d="M155.624,121.09h0.003c-1.381-1.637-2.217-3.747-2.217-6.055c0-4.16,2.722-7.647,6.466-8.881
					c-0.928-0.308-1.906-0.512-2.939-0.512c-5.187,0-9.393,4.204-9.393,9.393c0,2.308,0.836,4.418,2.217,6.055h-0.003l16.573,18.665
					l2.933-3.303L155.624,121.09z"/>
			</g>
		</g>
		<g>
			<path fill="#FE6F80" d="M149.757,121.09h0.003c-1.381-1.637-2.217-3.747-2.217-6.055c0-5.189,4.206-9.393,9.393-9.393
				c5.039,0,9.137,3.968,9.37,8.948l0.013-0.006l0.032,0.013c0.218-4.693,3.88-8.446,8.514-8.872
				c1.247-2.259,1.986-4.838,1.986-7.601c0-8.737-7.082-15.82-15.821-15.82c-8.486,0-15.393,6.688-15.783,15.082l-0.053-0.022
				l-0.022,0.01c-0.394-8.389-7.295-15.071-15.781-15.071c-8.736,0-15.818,7.083-15.818,15.82c0,3.886,1.405,7.441,3.731,10.198
				h-0.005l27.912,31.433l10.558-11.89L149.757,121.09z"/>
		</g>
		<g>
			<path fill="#FFA1AA" d="M126.016,108.323h0.005c-2.327-2.757-3.731-6.312-3.731-10.198c0-7.215,4.86-13.234,11.464-15.136
				c-1.393-0.402-2.837-0.684-4.36-0.684c-8.736,0-15.818,7.083-15.818,15.82c0,3.886,1.405,7.441,3.731,10.198h-0.005
				l27.912,31.433l4.357-4.906L126.016,108.323z"/>
		</g>
		<g>
			<rect x="87.297" y="164.968" fill="#FE6F80" width="67.692" height="9.093"/>
		</g>
		<g>
			<rect x="87.297" y="198.309" fill="#FE6F80" width="67.692" height="9.093"/>
		</g>
		<g>
			<rect x="87.297" y="234.176" fill="#FE6F80" width="67.692" height="9.093"/>
		</g>
		<g>
			<g>
				<path fill="#FE6F80" d="M188.694,182.277L188.694,182.277c-1.206,0-2.362-0.48-3.214-1.332l-9.296-9.297
					c-1.776-1.776-1.776-4.655,0-6.429c1.776-1.776,4.656-1.776,6.429,0l6.081,6.081l13.218-13.216c1.776-1.776,4.653-1.776,6.429,0
					c1.776,1.774,1.776,4.654,0,6.429l-16.432,16.432C191.056,181.797,189.9,182.277,188.694,182.277z"/>
			</g>
		</g>
		<g>
			<g>
				<path fill="#FE6F80" d="M188.694,215.617L188.694,215.617c-1.206,0-2.362-0.479-3.214-1.332l-9.296-9.297
					c-1.776-1.776-1.776-4.655,0-6.429c1.776-1.776,4.656-1.776,6.429,0l6.081,6.081l13.218-13.216c1.776-1.776,4.653-1.776,6.429,0
					c1.776,1.774,1.776,4.654,0,6.429l-16.432,16.432C191.056,215.138,189.9,215.617,188.694,215.617z"/>
			</g>
		</g>
		<g>
			<g>
				<path fill="#FE6F80" d="M188.694,251.484L188.694,251.484c-1.206,0-2.362-0.479-3.214-1.332l-9.296-9.297
					c-1.776-1.776-1.776-4.655,0-6.429c1.776-1.776,4.656-1.776,6.429,0l6.081,6.081l13.218-13.216c1.776-1.776,4.653-1.776,6.429,0
					c1.776,1.774,1.776,4.654,0,6.429l-16.432,16.432C191.056,251.005,189.9,251.484,188.694,251.484z"/>
			</g>
		</g>
		<g>
			<rect x="60.776" y="49.127" fill="#F9F9F9" width="15.272" height="222.111"/>
		</g>
	</g>
	<g>
		<g>
			<path fill="#161616" d="M103.21,74.039c-7.102,0-12.882-5.779-12.882-12.882V37.097c0-7.102,5.779-12.882,12.882-12.882
				c7.102,0,12.882,5.779,12.882,12.882v24.061C116.091,68.26,110.312,74.039,103.21,74.039z M103.21,33.308
				c-2.09,0-3.789,1.699-3.789,3.789v24.061c0,2.09,1.699,3.789,3.789,3.789s3.789-1.699,3.789-3.789V37.097
				C106.998,35.007,105.299,33.308,103.21,33.308z"/>
		</g>
		<g>
			<path fill="#161616" d="M196.791,74.039c-7.102,0-12.882-5.779-12.882-12.882V37.097c0-7.102,5.779-12.882,12.882-12.882
				c7.102,0,12.882,5.779,12.882,12.882v24.061C209.672,68.26,203.893,74.039,196.791,74.039z M196.791,33.308
				c-2.09,0-3.789,1.699-3.789,3.789v24.061c0,2.09,1.699,3.789,3.789,3.789c2.09,0,3.789-1.699,3.789-3.789V37.097
				C200.579,35.007,198.88,33.308,196.791,33.308z"/>
		</g>
		<g>
			<path fill="#161616" d="M239.224,275.785H60.776c-2.512,0-4.547-2.035-4.547-4.547V49.127c0-2.511,2.035-4.546,4.547-4.546
				h34.098c2.511,0,4.547,2.035,4.547,4.546v12.031c0,2.09,1.699,3.789,3.789,3.789s3.789-1.699,3.789-3.789V49.127
				c0-2.511,2.035-4.546,4.546-4.546h76.911c2.511,0,4.546,2.035,4.546,4.546v12.031c0,2.09,1.699,3.789,3.789,3.789
				c2.09,0,3.789-1.699,3.789-3.789V49.127c0-2.511,2.035-4.546,4.546-4.546h34.098c2.512,0,4.546,2.035,4.546,4.546v191.34
				c0,2.512-2.035,4.546-4.546,4.546c-2.511,0-4.546-2.035-4.546-4.546V53.674h-25.005v7.484c0,7.102-5.779,12.882-12.882,12.882
				c-7.102,0-12.882-5.779-12.882-12.882v-7.484h-67.818v7.484c0,7.102-5.779,12.882-12.882,12.882
				c-7.102,0-12.882-5.779-12.882-12.882v-7.484H65.322v213.019h169.355v-6.081c0-2.512,2.035-4.546,4.546-4.546
				c2.512,0,4.546,2.035,4.546,4.546v10.628C243.77,273.75,241.736,275.785,239.224,275.785z"/>
		</g>
		<g>
			<path fill="#161616" d="M166.33,144.302c-1.299,0-2.537-0.556-3.4-1.527l-16.573-18.665c-2.195-2.606-3.361-5.795-3.361-9.074
				c0-7.687,6.253-13.94,13.94-13.94c3.616,0,6.914,1.373,9.393,3.636c2.479-2.263,5.779-3.636,9.395-3.636
				c7.686,0,13.938,6.253,13.938,13.94c0,3.286-1.168,6.476-3.29,8.986l-16.644,18.751
				C168.867,143.746,167.629,144.302,166.33,144.302z M156.937,110.189c-2.673,0-4.847,2.174-4.847,4.847
				c0,1.459,0.623,2.504,1.145,3.123l13.095,14.749l13.176-14.837c0.443-0.528,1.064-1.575,1.064-3.035
				c0-2.673-2.174-4.847-4.845-4.847c-2.589,0-4.711,2.029-4.831,4.619c-0.068,1.477-0.851,2.827-2.096,3.621
				c-1.114,0.712-2.47,0.898-3.724,0.531c-0.4-0.113-0.787-0.281-1.15-0.505c-1.277-0.789-2.09-2.153-2.161-3.654
				C161.644,112.215,159.524,110.189,156.937,110.189z"/>
		</g>
		<g>
			<path fill="#161616" d="M145.214,144.302c-1.299,0-2.537-0.556-3.4-1.527l-8.007-9.016c-1.668-1.878-1.496-4.751,0.38-6.419
				c1.875-1.671,4.749-1.496,6.419,0.38l4.607,5.187l4.478-5.042l-3.334-3.758c-2.195-2.605-3.361-5.794-3.361-9.072
				c0-7.687,6.253-13.94,13.94-13.94c3.633,0,6.947,1.387,9.43,3.67c1.51-1.37,3.321-2.418,5.323-3.028
				c0.408-1.168,0.616-2.377,0.616-3.614c0-6.216-5.057-11.273-11.274-11.273c-6.023,0-10.961,4.721-11.24,10.746
				c-0.07,1.481-0.855,2.837-2.109,3.63c-1.113,0.709-2.472,0.891-3.722,0.519c-0.392-0.11-0.771-0.271-1.126-0.485
				c-1.298-0.784-2.131-2.159-2.202-3.673c-0.283-6.021-5.218-10.737-11.239-10.737c-6.214,0-11.271,5.057-11.271,11.273
				c0,2.654,0.944,5.235,2.66,7.267l6.362,7.168c1.667,1.878,1.495,4.751-0.383,6.417c-1.877,1.671-4.749,1.496-6.417-0.38
				l-6.441-7.253c-3.17-3.762-4.874-8.424-4.874-13.218c0-11.23,9.136-20.366,20.364-20.366c6.379,0,12.085,2.927,15.819,7.54
				c3.734-4.613,9.439-7.54,15.819-7.54c11.23,0,20.367,9.136,20.367,20.366c0,3.388-0.882,6.777-2.553,9.799
				c-0.728,1.319-2.063,2.192-3.564,2.329c-2.392,0.22-4.279,2.178-4.388,4.555c-0.07,1.477-0.851,2.827-2.096,3.621
				c-1.114,0.712-2.475,0.894-3.722,0.533c-0.401-0.114-0.789-0.283-1.151-0.506c-1.277-0.789-2.09-2.153-2.161-3.654
				c-0.12-2.587-2.241-4.613-4.828-4.613c-2.673,0-4.847,2.174-4.847,4.847c0,1.459,0.623,2.504,1.145,3.123l5.938,6.689
				c1.527,1.723,1.527,4.316-0.001,6.037l-10.558,11.89C147.75,143.746,146.513,144.302,145.214,144.302z"/>
		</g>
		<g>
			<rect x="87.297" y="164.968" fill="#161616" width="67.692" height="9.093"/>
		</g>
		<g>
			<rect x="87.297" y="198.309" fill="#161616" width="67.692" height="9.093"/>
		</g>
		<g>
			<rect x="87.297" y="234.176" fill="#161616" width="67.692" height="9.093"/>
		</g>
		<g>
			<g>
				<path fill="#161616" d="M188.694,182.277L188.694,182.277c-1.206,0-2.362-0.48-3.214-1.332l-9.296-9.297
					c-1.776-1.776-1.776-4.655,0-6.429c1.776-1.776,4.656-1.776,6.429,0l6.081,6.081l13.218-13.216c1.776-1.776,4.653-1.776,6.429,0
					c1.776,1.774,1.776,4.654,0,6.429l-16.432,16.432C191.056,181.797,189.9,182.277,188.694,182.277z"/>
			</g>
		</g>
		<g>
			<g>
				<path fill="#161616" d="M188.694,215.617L188.694,215.617c-1.206,0-2.362-0.479-3.214-1.332l-9.296-9.297
					c-1.776-1.776-1.776-4.655,0-6.429c1.776-1.776,4.656-1.776,6.429,0l6.081,6.081l13.218-13.216c1.776-1.776,4.653-1.776,6.429,0
					c1.776,1.774,1.776,4.654,0,6.429l-16.432,16.432C191.056,215.138,189.9,215.617,188.694,215.617z"/>
			</g>
		</g>
		<g>
			<g>
				<path fill="#161616" d="M188.694,251.484L188.694,251.484c-1.206,0-2.362-0.479-3.214-1.332l-9.296-9.297
					c-1.776-1.776-1.776-4.655,0-6.429c1.776-1.776,4.656-1.776,6.429,0l6.081,6.081l13.218-13.216c1.776-1.776,4.653-1.776,6.429,0
					c1.776,1.774,1.776,4.654,0,6.429l-16.432,16.432C191.056,251.005,189.9,251.484,188.694,251.484z"/>
			</g>
		</g>
	</g>
</g>
</svg>
