<svg width="185" height="71" viewBox="0 0 185 71" fill="none" xmlns="http://www.w3.org/2000/svg">
<path d="M38.437 62.3592C38.4728 62.5789 38.1989 62.7245 38.0052 62.5922C34.7749 60.3537 15.6328 49.463 9.17369 44.7742C9.16795 44.7689 9.16222 44.7663 9.15791 44.7623C5.47437 42.0856 3.65411 40.276 3.04305 39.0794C3.00289 39.0013 2.9699 38.9298 2.93977 38.8596C2.37892 37.4922 3.558 37.0143 5.3051 36.9613C5.34814 36.9587 5.39404 36.9587 5.44137 36.9587C8.57124 36.9057 13.3708 38.1474 13.3708 38.1474C13.3708 38.1474 13.3736 38.1501 13.3794 38.1527C13.8785 38.4506 36.8835 52.28 38.437 62.3592Z" fill="#DB9F9A"/>
<path d="M47.5741 24.5153C47.5741 24.5153 75.7343 19.3606 45.3379 55.1778C45.3379 55.1778 74.9225 35.3623 73.3303 28.2669C71.7367 21.1715 55.1349 6.89329 47.5741 24.5153Z" fill="url(#paint0_linear_741_510)"/>
<path d="M29.6042 24.3379C29.6042 24.3379 5.5378 19.4479 27.6821 48.359C27.6821 48.359 3.09645 37.6272 6.69824 29.0691C6.69824 29.0691 6.39701 15.507 19.4314 16.5899C32.4673 17.6727 29.6028 24.3379 29.6028 24.3379H29.6042Z" fill="url(#paint1_linear_741_510)"/>
<path d="M73.9676 39.0185V38.8464L69.749 35.3345L67.616 33.5593L51.2653 19.943L50.6743 19.4519L46.166 15.6937L38.5048 9.31445L30.7791 15.748L27.2691 18.6722L25.5823 20.0767L9.3979 33.5553L7.8301 34.8592L5.30698 36.9601L3.04492 38.8451V39.0781C3.65598 40.2748 5.47624 42.0844 9.15979 44.761C9.16552 44.7663 9.17126 44.769 9.17557 44.773V44.7677L9.18704 41.7137L12.1175 39.225L13.3812 38.1515L18.9266 33.4428L29.623 24.3578L34.5301 20.1892L38.5077 16.8123L42.438 20.1495L42.6603 20.3375L47.5789 24.5153L58.8906 34.1246L63.627 38.1475L65.4228 39.6725L67.8298 41.715L67.8412 44.7624C67.9632 44.6922 68.0851 44.6194 68.207 44.5439C68.4021 44.4261 68.5972 44.303 68.7879 44.1733L73.969 39.0185H73.9676Z" fill="url(#paint2_linear_741_510)"/>
<path d="M42.1392 30.0097C42.4763 29.7687 42.7818 29.4987 43.0644 29.2061L47.5756 24.5147L42.5437 20.2402C42.5437 20.2402 41.957 20.6162 38.503 25.0349C37.0241 26.9279 35.6815 28.7282 34.8711 30.0097C35.0504 30.1367 35.2369 30.2546 35.4334 30.3631C36.469 30.9217 37.5333 31.119 38.5073 31.1296C39.4784 31.119 40.5413 30.9191 41.5755 30.3631C41.7734 30.2559 41.9613 30.1381 42.1392 30.0097Z" fill="url(#paint3_linear_741_510)"/>
<path d="M59.1582 10.6264C59.0305 10.6237 58.9029 10.6211 58.7752 10.6211C57.1285 10.6211 55.5335 10.8395 54.0173 11.2499C51.028 12.0587 48.3428 13.6088 46.1668 15.6938L50.6751 19.452L51.2661 19.9431C53.0677 18.6511 55.2724 17.8899 57.6578 17.8899C63.7297 17.8899 68.6468 22.8196 68.6468 28.901C68.6468 30.5663 68.2781 32.1456 67.6155 33.5607C66.739 35.4405 65.3505 37.0303 63.6249 38.1502C63.6249 38.1502 55.1777 43.853 48.0803 51.8645C47.1393 52.9261 46.2228 54.0275 45.3492 55.1646C45.3463 55.1699 45.3435 55.1752 45.3406 55.1792H45.3377C41.657 59.9832 38.8083 65.3709 38.5257 70.7414C38.5128 70.9916 38.8614 71.0962 39.022 70.8937C46.752 61.1282 68.2466 44.5996 68.2466 44.5996C70.5603 42.7861 72.4767 41.2611 73.9656 39.0213C75.892 36.1248 77.0151 32.6446 77.0151 28.9024C77.0151 18.9357 69.0556 10.8316 59.1568 10.629L59.1582 10.6264Z" fill="url(#paint4_linear_741_510)"/>
<path d="M38.4965 25.0356C39.9754 26.9286 41.318 28.7289 42.1284 30.0104C41.9491 30.1374 41.7627 30.2552 41.5676 30.3638C40.532 30.9224 39.4676 31.1197 38.4937 31.1303C37.5226 31.1197 36.4597 30.9198 35.4255 30.3638C35.2275 30.2566 35.0396 30.1388 34.8618 30.0104C34.5247 29.7694 34.2191 29.4994 33.9366 29.2068L29.6061 24.338L27.0213 21.525C25.3086 19.395 22.6722 18.0117 19.8019 17.8965C19.6542 17.8912 19.5065 17.8873 19.3573 17.8873C13.2854 17.8873 8.36832 22.817 8.36832 28.8984C8.36832 30.5637 8.73695 32.1429 9.39965 33.5581L3.04954 39.0186C1.12314 36.1222 0 32.642 0 28.8997C0 18.806 8.16606 10.6211 18.2413 10.6211C20.8921 10.6211 23.4095 11.1877 25.6801 12.2056C28.1688 13.3216 30.2975 15.0187 31.9643 17.0546L38.498 25.0356H38.4965Z" fill="url(#paint5_linear_741_510)"/>
<path d="M57.2838 11.4612C60.7132 11.4612 63.4933 8.89552 63.4933 5.7306C63.4933 2.56568 60.7132 0 57.2838 0C53.8543 0 51.0742 2.56568 51.0742 5.7306C51.0742 8.89552 53.8543 11.4612 57.2838 11.4612Z" fill="url(#paint6_linear_741_510)"/>
<path d="M19.7252 11.4612C23.1546 11.4612 25.9347 8.89552 25.9347 5.7306C25.9347 2.56568 23.1546 0 19.7252 0C16.2957 0 13.5156 2.56568 13.5156 5.7306C13.5156 8.89552 16.2957 11.4612 19.7252 11.4612Z" fill="url(#paint7_linear_741_510)"/>
<path d="M88.1491 58.0639H93.0835V59.955H85.8652V49.9111H88.1508V58.0639H88.1491Z" fill="#666461"/>
<path d="M96.2129 59.955V49.9111H98.4985V59.955H96.2129Z" fill="#666461"/>
<path d="M110.686 49.9111V51.7861H107.275V59.955H104.989V51.7861H101.562V49.9111H110.686Z" fill="#666461"/>
<path d="M118.034 49.9111L121.893 59.8315V59.955H119.393L118.531 57.5523H114.558L113.713 59.955H111.246V59.8315L115.105 49.9111H118.036H118.034ZM115.187 55.7847H117.902L116.528 51.9561L115.187 55.7847Z" fill="#666461"/>
<path d="M123.916 58.9621L124.977 57.4272C126.003 58.0367 127.007 58.3414 127.99 58.3414C128.619 58.3414 129.114 58.2484 129.472 58.0623C129.83 57.8763 130.01 57.5972 130.01 57.2251C130.01 56.9973 129.952 56.8097 129.837 56.6589C129.721 56.5097 129.517 56.3638 129.224 56.2242C128.931 56.0847 128.492 55.9066 127.908 55.6901L127.528 55.5506C126.822 55.2923 126.253 55.0437 125.823 54.8063C125.393 54.569 125.05 54.2642 124.797 53.8921C124.543 53.52 124.416 53.05 124.416 52.4822C124.416 51.8519 124.61 51.3274 124.995 50.9088C125.381 50.4902 125.878 50.1822 126.486 49.9865C127.093 49.7908 127.738 49.6914 128.424 49.6914C129.042 49.6914 129.68 49.7876 130.336 49.9785C130.992 50.1694 131.619 50.4517 132.215 50.8238L131.146 52.3427C130.62 52.0428 130.154 51.8262 129.748 51.6915C129.342 51.5568 128.904 51.4894 128.432 51.4894C127.906 51.4894 127.507 51.5728 127.24 51.738C126.971 51.9032 126.837 52.1262 126.837 52.4053C126.837 52.5817 126.892 52.7389 127.002 52.8784C127.111 53.018 127.308 53.1575 127.595 53.297C127.881 53.4366 128.292 53.6002 128.83 53.7862L129.191 53.9097C129.894 54.1584 130.461 54.3893 130.894 54.6075C131.328 54.824 131.693 55.1351 131.989 55.5377C132.286 55.9403 132.433 56.4632 132.433 57.1032C132.433 57.7431 132.245 58.3414 131.869 58.8001C131.494 59.2605 130.984 59.6037 130.338 59.8315C129.692 60.0592 128.96 60.1731 128.145 60.1731C126.488 60.1731 125.081 59.7705 123.923 58.9637L123.916 58.9621Z" fill="#666461"/>
<path d="M140.687 54.654L145.157 59.8315V59.955H142.265L138.086 54.9796V59.955H135.801V49.9111H138.086V54.5609L142.25 49.9111H144.924V50.0346L140.686 54.654H140.687Z" fill="#666461"/>
<path d="M149.894 59.6056C149.198 59.2287 148.693 58.717 148.379 58.0706C148.066 57.4258 147.908 56.688 147.908 55.862V49.9098H150.194V55.5973C150.194 56.4651 150.381 57.1403 150.756 57.6199C151.129 58.0995 151.782 58.3401 152.712 58.3401C153.643 58.3401 154.22 58.0995 154.583 57.6199C154.947 57.1387 155.128 56.5164 155.128 55.7513V49.9082H157.414V55.8139C157.414 56.8372 157.205 57.6712 156.785 58.3176C156.365 58.964 155.795 59.434 155.072 59.7275C154.349 60.0226 153.513 60.1686 152.563 60.1686C151.482 60.1686 150.593 59.9793 149.897 59.6024L149.894 59.6056Z" fill="#666461"/>
<path d="M170.707 49.9118V59.9556H168.157L164.784 55.2737C164.496 54.8599 164.252 54.5006 164.052 54.1959C163.853 53.8911 163.66 53.5479 163.471 53.1645V59.954H161.186V49.9102H163.702L167.374 55.0556C167.419 55.1181 167.518 55.2593 167.674 55.4822C167.828 55.7052 167.97 55.9137 168.097 56.1093C168.224 56.305 168.332 56.4975 168.421 56.6836V49.9102H170.707V49.9118Z" fill="#666461"/>
<path d="M176.468 59.6056C175.773 59.2287 175.267 58.717 174.954 58.0706C174.64 57.4258 174.482 56.688 174.482 55.862V49.9098H176.768V55.5973C176.768 56.4651 176.955 57.1403 177.33 57.6199C177.703 58.0995 178.356 58.3401 179.287 58.3401C180.217 58.3401 180.794 58.0995 181.158 57.6199C181.521 57.1387 181.702 56.5164 181.702 55.7513V49.9082H183.988V55.8139C183.988 56.8372 183.779 57.6712 183.359 58.3176C182.939 58.964 182.369 59.434 181.646 59.7275C180.923 60.0226 180.087 60.1686 179.138 60.1686C178.056 60.1686 177.167 59.9793 176.472 59.6024L176.468 59.6056Z" fill="#666461"/>
<path d="M89.0161 17.7832H85.8652V38.3456H89.0161V17.7832Z" fill="#666461"/>
<path d="M113.238 21.9229C113.778 21.9229 114.201 21.7657 114.509 21.4497C114.818 21.1337 114.972 20.7151 114.972 20.1922C114.972 19.6693 114.823 19.2266 114.525 18.9203C114.227 18.6139 113.797 18.46 113.238 18.46C112.679 18.46 112.28 18.6091 111.98 18.9059C111.682 19.2042 111.533 19.6324 111.533 20.1906C111.533 20.7488 111.687 21.1562 111.996 21.4625C112.304 21.7689 112.719 21.9229 113.238 21.9229Z" fill="#666461"/>
<path d="M122.45 16.6467C123.394 16.6467 124.296 16.4574 125.152 16.0789C126.009 15.7004 126.708 15.2047 127.248 14.5904C127.517 14.2841 127.71 13.9681 127.825 13.6441C127.942 13.3185 127.998 12.9945 127.998 12.6705C127.998 12.0578 127.772 11.543 127.32 11.1292C126.867 10.7153 126.254 10.5068 125.485 10.5068C124.715 10.5068 124.083 10.7137 123.591 11.1292C123.1 11.5446 122.855 12.0947 122.855 12.7796C122.855 13.5559 123.153 14.313 123.751 15.0524C123.557 15.1069 123.346 15.147 123.115 15.1743C122.884 15.2015 122.642 15.2144 122.392 15.2144C122.084 15.2144 121.756 15.1598 121.409 15.0524C121.061 14.9449 120.704 14.7733 120.339 14.5391L119.443 15.7292C119.906 16.0356 120.387 16.2666 120.888 16.4189C121.388 16.5729 121.909 16.6483 122.449 16.6483L122.45 16.6467ZM124.719 12.1428C124.921 11.9712 125.157 11.8862 125.426 11.8862C125.716 11.8862 125.951 11.9728 126.134 12.1428C126.317 12.3145 126.408 12.5262 126.408 12.778C126.408 13.0844 126.307 13.4003 126.105 13.7243C125.903 14.0483 125.57 14.329 125.108 14.5632C124.858 14.2745 124.679 13.9954 124.573 13.7243C124.467 13.4533 124.414 13.1838 124.414 12.9127C124.414 12.5711 124.515 12.3129 124.717 12.1412L124.719 12.1428Z" fill="#666461"/>
<path d="M173.987 12.3721L167.223 14.7267V16.2953L173.987 13.9151V12.3721Z" fill="#666461"/>
<path d="M168.181 21.5977C168.702 21.5977 169.115 21.4437 169.423 21.1373C169.732 20.831 169.886 20.4075 169.886 19.8654C169.886 19.3233 169.737 18.8774 169.439 18.5807C169.141 18.2823 168.721 18.1348 168.181 18.1348C167.681 18.1348 167.266 18.2743 166.939 18.5534C166.612 18.8341 166.447 19.2703 166.447 19.8654C166.447 20.4605 166.612 20.8759 166.939 21.163C167.266 21.4517 167.681 21.596 168.181 21.596V21.5977Z" fill="#666461"/>
<path d="M171.875 18.5807C171.566 18.879 171.412 19.3072 171.412 19.8654C171.412 20.4236 171.566 20.831 171.875 21.1373C172.183 21.4437 172.606 21.5977 173.146 21.5977C173.686 21.5977 174.104 21.4405 174.404 21.1245C174.702 20.8085 174.851 20.3899 174.851 19.867C174.851 19.3441 174.702 18.9014 174.404 18.5951C174.105 18.2887 173.686 18.1348 173.146 18.1348C172.606 18.1348 172.183 18.2839 171.875 18.5807Z" fill="#666461"/>
<path d="M177.227 44.6498L183.989 42.2695V40.7266L177.227 43.0811V44.6498Z" fill="#666461"/>
<path d="M180.984 17.7837V35.8569H173.181V25.1426H170.03V35.8569H161.851V25.1426H158.787V35.8569H156.995C156.166 35.8569 155.482 35.7125 154.943 35.4238C154.403 35.1351 153.892 34.6298 153.411 33.9081C153.45 33.7461 153.469 33.5825 153.469 33.4205V27.2517H150.406V32.718C150.406 33.7108 150.155 34.4807 149.653 35.0308C149.151 35.581 148.439 35.8552 147.515 35.8552H144.596V27.2517H141.532V35.8552H134.105V30.6328C134.105 28.7578 133.435 27.3239 132.097 26.3311C130.757 25.3399 128.787 24.8426 126.186 24.8426H124.133C124.479 24.2652 124.942 23.675 125.519 23.0703C126.097 22.4656 126.767 21.885 127.527 21.3252C128.288 20.767 129.102 20.2522 129.969 19.7838C130.836 19.3155 131.703 18.9354 132.57 18.6467L131.413 16.0771C130.025 16.5631 128.653 17.2592 127.294 18.1607C125.936 19.0621 124.707 20.0998 123.609 21.2723C123.088 21.8497 122.612 22.44 122.178 23.0446C121.745 23.6493 121.365 24.2668 121.037 24.8972V27.3319H125.951C127.646 27.3319 128.919 27.6431 129.767 28.2654C130.615 28.8878 131.038 29.8309 131.038 31.0932V35.8552H115.692V25.141H112.541V35.8552H106.299V25.141H102.31C100.654 25.141 99.1991 25.4201 97.9466 25.9798C96.6942 26.5396 95.7158 27.3368 95.0134 28.3745C94.3092 29.4122 93.958 30.6601 93.958 32.1213C93.958 34.1422 94.5165 35.6836 95.6336 36.747C96.7507 37.812 98.3407 38.3429 100.402 38.3429H103.234V38.9107C103.234 39.9565 102.891 40.7906 102.208 41.4129C101.524 42.0352 100.556 42.3464 99.3036 42.3464C98.5326 42.3464 97.8095 42.2517 97.1362 42.0625C96.4612 41.8732 95.7878 41.6166 95.1128 41.291L93.7832 43.4819C94.5731 43.9503 95.416 44.2935 96.3121 44.5101C97.2082 44.7266 98.2053 44.8341 99.3036 44.8341C101.519 44.8341 103.239 44.3064 104.462 43.251C105.686 42.1956 106.297 40.712 106.297 38.8001V38.3397H148.002C149.002 38.3397 149.874 38.1633 150.616 37.812C151.358 37.4608 151.96 36.9876 152.422 36.391C153.154 37.0951 153.892 37.5955 154.632 37.8922C155.374 38.1906 156.169 38.3381 157.017 38.3381H184.128V17.7757H180.977L180.984 17.7837ZM103.239 35.8569H100.753C99.54 35.8569 98.6388 35.5505 98.0511 34.9362C97.4635 34.3235 97.1688 33.3675 97.1688 32.0684C97.1688 30.6617 97.6022 29.5694 98.4692 28.7947C99.3361 28.02 100.541 27.6319 102.083 27.6319H103.239V35.8569Z" fill="#666461"/>
<defs>
<linearGradient id="paint0_linear_741_510" x1="59.3649" y1="55.1765" x2="59.3649" y2="16.0591" gradientUnits="userSpaceOnUse">
<stop stop-color="#C5C9BA"/>
<stop offset="1" stop-color="#4B503F"/>
</linearGradient>
<linearGradient id="paint1_linear_741_510" x1="18.106" y1="48.3604" x2="18.106" y2="16.529" gradientUnits="userSpaceOnUse">
<stop stop-color="#F5E2E0"/>
<stop offset="1" stop-color="#BE554B"/>
</linearGradient>
<linearGradient id="paint2_linear_741_510" x1="73.9676" y1="27.0437" x2="3.04349" y2="27.0437" gradientUnits="userSpaceOnUse">
<stop stop-color="#E2C675"/>
<stop offset="0.3" stop-color="#E2C678"/>
<stop offset="0.54" stop-color="#E3CA82"/>
<stop offset="0.76" stop-color="#E6CF93"/>
<stop offset="0.96" stop-color="#E9D6AA"/>
<stop offset="1" stop-color="#EAD8B0"/>
</linearGradient>
<linearGradient id="paint3_linear_741_510" x1="35.977" y1="31.029" x2="44.5592" y2="21.7296" gradientUnits="userSpaceOnUse">
<stop stop-color="#838C6E"/>
<stop offset="0.45" stop-color="#858E70"/>
<stop offset="0.72" stop-color="#8D9678"/>
<stop offset="0.94" stop-color="#9CA585"/>
<stop offset="1" stop-color="#A1AA8A"/>
</linearGradient>
<linearGradient id="paint4_linear_741_510" x1="25.8901" y1="59.1929" x2="68.4986" y2="13.0233" gradientUnits="userSpaceOnUse">
<stop stop-color="#838C6E"/>
<stop offset="0.45" stop-color="#858E70"/>
<stop offset="0.72" stop-color="#8D9678"/>
<stop offset="0.94" stop-color="#9CA585"/>
<stop offset="1" stop-color="#A1AA8A"/>
</linearGradient>
<linearGradient id="paint5_linear_741_510" x1="4.94009" y1="16.3212" x2="28.8668" y2="42.249" gradientUnits="userSpaceOnUse">
<stop stop-color="#FFD7D4"/>
<stop offset="0.08" stop-color="#F7CAC7"/>
<stop offset="0.24" stop-color="#EAB7B3"/>
<stop offset="0.42" stop-color="#E1A9A4"/>
<stop offset="0.64" stop-color="#DCA19C"/>
<stop offset="1" stop-color="#DB9F9A"/>
</linearGradient>
<linearGradient id="paint6_linear_741_510" x1="57.2838" y1="11.4612" x2="57.2838" y2="0.00132377" gradientUnits="userSpaceOnUse">
<stop stop-color="#838C6E"/>
<stop offset="0.39" stop-color="#868F70"/>
<stop offset="0.71" stop-color="#90997A"/>
<stop offset="1" stop-color="#A1AA8A"/>
</linearGradient>
<linearGradient id="paint7_linear_741_510" x1="19.7252" y1="11.4612" x2="19.7252" y2="0.00132377" gradientUnits="userSpaceOnUse">
<stop stop-color="#DB9F9A"/>
<stop offset="0.3" stop-color="#DCA29D"/>
<stop offset="0.54" stop-color="#E3ABA7"/>
<stop offset="0.76" stop-color="#EDBCB8"/>
<stop offset="0.97" stop-color="#FCD2CF"/>
<stop offset="1" stop-color="#FFD7D4"/>
</linearGradient>
</defs>
</svg>
