<svg width="192" height="191" viewBox="0 0 192 191" fill="none" xmlns="http://www.w3.org/2000/svg">
<path d="M95.4242 167.754C95.5132 168.345 94.833 168.737 94.3523 168.38C86.3326 162.359 38.8095 133.061 22.7738 120.448C22.7596 120.433 22.7453 120.426 22.7346 120.416C13.5897 113.215 9.07062 108.347 7.55358 105.128C7.45387 104.918 7.37197 104.725 7.29718 104.537C5.90478 100.858 8.83202 99.5724 13.1695 99.43C13.2763 99.4229 13.3903 99.4229 13.5078 99.4229C21.2781 99.2804 33.1936 102.621 33.1936 102.621C33.1936 102.621 33.2008 102.628 33.215 102.635C34.4543 103.436 91.5675 140.639 95.4242 167.754Z" fill="#DB9F9A"/>
<path d="M118.114 65.9487C118.114 65.9487 188.026 52.0817 112.562 148.435C112.562 148.435 186.011 95.1285 182.058 76.041C178.101 56.9534 136.885 18.5431 118.114 65.9487Z" fill="url(#paint0_linear_407_242)"/>
<path d="M73.4965 65.4712C73.4965 65.4712 13.748 52.3165 68.7246 130.091C68.7246 130.091 7.68702 101.221 16.629 78.1987C16.629 78.1987 15.8811 41.715 48.241 44.628C80.6045 47.541 73.4929 65.4712 73.4929 65.4712H73.4965Z" fill="url(#paint1_linear_407_242)"/>
<path d="M183.635 104.964V104.501L173.161 95.0535L167.866 90.278L127.273 53.6484L125.806 52.3272L114.613 42.2172L95.593 25.0562L76.4128 42.3632L67.6988 50.2297L63.5109 54.008L23.3308 90.2674L19.4385 93.7751L13.1745 99.4266L7.55859 104.498V105.124C9.07563 108.344 13.5947 113.212 22.7396 120.412C22.7539 120.426 22.7681 120.434 22.7788 120.444V120.43L22.8073 112.215L30.0827 105.52L33.22 102.632L46.9873 89.9647L73.5426 65.5247L85.7252 54.3107L95.6001 45.2263L105.358 54.2039L105.91 54.7096L118.121 65.9485L146.204 91.7986L157.962 102.621L162.421 106.723L168.396 112.218L168.425 120.416C168.728 120.227 169.03 120.031 169.333 119.828C169.817 119.511 170.302 119.18 170.775 118.831L183.638 104.964H183.635Z" fill="url(#paint2_linear_407_242)"/>
<path d="M104.614 80.7308C105.451 80.0826 106.21 79.3562 106.911 78.5692L118.111 65.9486L105.619 54.4497C105.619 54.4497 104.162 55.4611 95.587 67.3481C91.9155 72.4405 88.5823 77.2836 86.5703 80.7308C87.0155 81.0726 87.4784 81.3896 87.9663 81.6816C90.5374 83.1844 93.1797 83.715 95.5977 83.7435C98.0086 83.715 100.647 83.1772 103.215 81.6816C103.706 81.3931 104.173 81.0762 104.614 80.7308Z" fill="url(#paint3_linear_407_242)"/>
<path d="M146.869 28.5855C146.552 28.5784 146.235 28.5713 145.918 28.5713C141.83 28.5713 137.87 29.1589 134.105 30.2628C126.684 32.4387 120.018 36.6087 114.615 42.2175L125.808 52.3275L127.275 53.6487C131.748 50.173 137.221 48.1254 143.144 48.1254C158.218 48.1254 170.425 61.387 170.425 77.7468C170.425 82.2267 169.51 86.4751 167.865 90.2819C165.689 95.3387 162.242 99.6156 157.958 102.628C157.958 102.628 136.986 117.97 119.366 139.521C117.03 142.377 114.754 145.34 112.586 148.399C112.579 148.414 112.571 148.428 112.564 148.439H112.557C103.419 161.362 96.3469 175.856 95.6454 190.303C95.6133 190.976 96.4787 191.257 96.8776 190.713C116.068 164.442 169.432 119.978 169.432 119.978C175.176 115.099 179.934 110.997 183.63 104.972C188.413 97.1798 191.201 87.8176 191.201 77.7503C191.201 50.9387 171.44 29.1375 146.865 28.5927L146.869 28.5855Z" fill="url(#paint4_linear_407_242)"/>
<path d="M95.5733 67.3483C99.2448 72.4407 102.578 77.2838 104.59 80.731C104.145 81.0729 103.682 81.3898 103.198 81.6818C100.627 83.1846 97.9842 83.7152 95.5662 83.7437C93.1553 83.7152 90.5165 83.1775 87.9489 81.6818C87.4575 81.3934 86.991 81.0764 86.5494 80.731C85.7126 80.0829 84.954 79.3564 84.2525 78.5694L73.5015 65.4716L67.0843 57.9042C62.8324 52.1744 56.287 48.453 49.1612 48.1432C48.7944 48.129 48.4276 48.1183 48.0573 48.1183C32.9831 48.1183 20.7756 61.3799 20.7756 77.7396C20.7756 82.2195 21.6908 86.468 23.336 90.2748L7.57094 104.964C2.78836 97.1727 0 87.8105 0 77.7432C0 50.5897 20.2735 28.5713 45.2867 28.5713C51.8677 28.5713 58.1174 30.0954 63.7547 32.8339C69.9332 35.836 75.2179 40.4013 79.356 45.8783L95.5769 67.3483H95.5733Z" fill="url(#paint5_linear_407_242)"/>
<path d="M142.217 30.8322C150.731 30.8322 157.633 23.9301 157.633 15.4161C157.633 6.90201 150.731 0 142.217 0C133.703 0 126.801 6.90201 126.801 15.4161C126.801 23.9301 133.703 30.8322 142.217 30.8322Z" fill="url(#paint6_linear_407_242)"/>
<path d="M48.9669 30.8322C57.4809 30.8322 64.3829 23.9301 64.3829 15.4161C64.3829 6.90201 57.4809 0 48.9669 0C40.4528 0 33.5508 6.90201 33.5508 15.4161C33.5508 23.9301 40.4528 30.8322 48.9669 30.8322Z" fill="url(#paint7_linear_407_242)"/>
<defs>
<linearGradient id="paint0_linear_407_242" x1="147.387" y1="148.431" x2="147.387" y2="43.2003" gradientUnits="userSpaceOnUse">
<stop stop-color="#C5C9BA"/>
<stop offset="1" stop-color="#4B503F"/>
</linearGradient>
<linearGradient id="paint1_linear_407_242" x1="44.9506" y1="130.095" x2="44.9506" y2="44.4642" gradientUnits="userSpaceOnUse">
<stop stop-color="#F5E2E0"/>
<stop offset="1" stop-color="#BE554B"/>
</linearGradient>
<linearGradient id="paint2_linear_407_242" x1="183.635" y1="72.7502" x2="7.55504" y2="72.7502" gradientUnits="userSpaceOnUse">
<stop stop-color="#E2C675"/>
<stop offset="0.3" stop-color="#E2C678"/>
<stop offset="0.54" stop-color="#E3CA82"/>
<stop offset="0.76" stop-color="#E6CF93"/>
<stop offset="0.96" stop-color="#E9D6AA"/>
<stop offset="1" stop-color="#EAD8B0"/>
</linearGradient>
<linearGradient id="paint3_linear_407_242" x1="89.3159" y1="83.4728" x2="112.477" y2="60.3113" gradientUnits="userSpaceOnUse">
<stop stop-color="#838C6E"/>
<stop offset="0.45" stop-color="#858E70"/>
<stop offset="0.72" stop-color="#8D9678"/>
<stop offset="0.94" stop-color="#9CA585"/>
<stop offset="1" stop-color="#A1AA8A"/>
</linearGradient>
<linearGradient id="paint4_linear_407_242" x1="64.2755" y1="159.236" x2="179.268" y2="44.2437" gradientUnits="userSpaceOnUse">
<stop stop-color="#838C6E"/>
<stop offset="0.45" stop-color="#858E70"/>
<stop offset="0.72" stop-color="#8D9678"/>
<stop offset="0.94" stop-color="#9CA585"/>
<stop offset="1" stop-color="#A1AA8A"/>
</linearGradient>
<linearGradient id="paint5_linear_407_242" x1="12.2645" y1="43.9055" x2="76.8383" y2="108.483" gradientUnits="userSpaceOnUse">
<stop stop-color="#FFD7D4"/>
<stop offset="0.08" stop-color="#F7CAC7"/>
<stop offset="0.24" stop-color="#EAB7B3"/>
<stop offset="0.42" stop-color="#E1A9A4"/>
<stop offset="0.64" stop-color="#DCA19C"/>
<stop offset="1" stop-color="#DB9F9A"/>
</linearGradient>
<linearGradient id="paint6_linear_407_242" x1="142.217" y1="30.8322" x2="142.217" y2="0.00356113" gradientUnits="userSpaceOnUse">
<stop stop-color="#838C6E"/>
<stop offset="0.39" stop-color="#868F70"/>
<stop offset="0.71" stop-color="#90997A"/>
<stop offset="1" stop-color="#A1AA8A"/>
</linearGradient>
<linearGradient id="paint7_linear_407_242" x1="48.9669" y1="30.8322" x2="48.9669" y2="0.00356113" gradientUnits="userSpaceOnUse">
<stop stop-color="#DB9F9A"/>
<stop offset="0.3" stop-color="#DCA29D"/>
<stop offset="0.54" stop-color="#E3ABA7"/>
<stop offset="0.76" stop-color="#EDBCB8"/>
<stop offset="0.97" stop-color="#FCD2CF"/>
<stop offset="1" stop-color="#FFD7D4"/>
</linearGradient>
</defs>
</svg>
